<svg width="1440" height="97" viewBox="0 0 1440 97" fill="none" xmlns="http://www.w3.org/2000/svg">
<rect width="1440" height="97" fill="#ECF0F1"/>
<rect y="46" width="1440" height="51" fill="#587175"/>
<path d="M589.169 38V27.8182H592.609C593.408 27.8182 594.061 27.9624 594.568 28.2507C595.078 28.5357 595.456 28.9219 595.701 29.4091C595.946 29.8963 596.069 30.4399 596.069 31.0398C596.069 31.6397 595.946 32.1849 595.701 32.6754C595.459 33.166 595.085 33.5571 594.578 33.8487C594.07 34.1371 593.421 34.2812 592.629 34.2812H590.163V33.1875H592.589C593.136 33.1875 593.575 33.093 593.906 32.9041C594.238 32.7152 594.478 32.46 594.627 32.1385C594.78 31.8137 594.856 31.4474 594.856 31.0398C594.856 30.6321 594.78 30.2675 594.627 29.946C594.478 29.6245 594.236 29.3726 593.901 29.1903C593.567 29.0047 593.123 28.9119 592.569 28.9119H590.401V38H589.169ZM600.916 38.1591C600.227 38.1591 599.622 37.995 599.102 37.6669C598.585 37.3388 598.18 36.8797 597.889 36.2898C597.6 35.6998 597.456 35.0104 597.456 34.2216C597.456 33.4261 597.6 32.7318 597.889 32.1385C598.18 31.5452 598.585 31.0845 599.102 30.7564C599.622 30.4283 600.227 30.2642 600.916 30.2642C601.606 30.2642 602.209 30.4283 602.726 30.7564C603.246 31.0845 603.651 31.5452 603.939 32.1385C604.231 32.7318 604.377 33.4261 604.377 34.2216C604.377 35.0104 604.231 35.6998 603.939 36.2898C603.651 36.8797 603.246 37.3388 602.726 37.6669C602.209 37.995 601.606 38.1591 600.916 38.1591ZM600.916 37.1051C601.44 37.1051 601.871 36.9709 602.209 36.7024C602.547 36.4339 602.797 36.081 602.96 35.6435C603.122 35.206 603.203 34.732 603.203 34.2216C603.203 33.7112 603.122 33.2356 602.96 32.7947C602.797 32.3539 602.547 31.9976 602.209 31.7259C601.871 31.4541 601.44 31.3182 600.916 31.3182C600.393 31.3182 599.962 31.4541 599.624 31.7259C599.286 31.9976 599.035 32.3539 598.873 32.7947C598.711 33.2356 598.629 33.7112 598.629 34.2216C598.629 34.732 598.711 35.206 598.873 35.6435C599.035 36.081 599.286 36.4339 599.624 36.7024C599.962 36.9709 600.393 37.1051 600.916 37.1051ZM607.341 27.8182V38H606.168V27.8182H607.341ZM609.49 38V30.3636H610.663V38H609.49ZM610.086 29.0909C609.858 29.0909 609.661 29.013 609.495 28.8572C609.332 28.7015 609.251 28.5142 609.251 28.2955C609.251 28.0767 609.332 27.8894 609.495 27.7337C609.661 27.5779 609.858 27.5 610.086 27.5C610.315 27.5 610.511 27.5779 610.673 27.7337C610.839 27.8894 610.922 28.0767 610.922 28.2955C610.922 28.5142 610.839 28.7015 610.673 28.8572C610.511 29.013 610.315 29.0909 610.086 29.0909ZM616.133 30.3636V31.358H612.176V30.3636H616.133ZM613.329 28.5341H614.502V35.8125C614.502 36.1439 614.551 36.3925 614.647 36.5582C614.746 36.7206 614.872 36.83 615.025 36.8864C615.18 36.9394 615.344 36.9659 615.517 36.9659C615.646 36.9659 615.752 36.9593 615.835 36.946C615.918 36.9295 615.984 36.9162 616.034 36.9062L616.272 37.9602C616.193 37.9901 616.082 38.0199 615.939 38.0497C615.797 38.0829 615.616 38.0994 615.397 38.0994C615.066 38.0994 614.741 38.0282 614.423 37.8857C614.108 37.7431 613.846 37.526 613.637 37.2344C613.432 36.9427 613.329 36.5748 613.329 36.1307V28.5341ZM617.898 38V30.3636H619.071V38H617.898ZM618.495 29.0909C618.266 29.0909 618.069 29.013 617.903 28.8572C617.741 28.7015 617.659 28.5142 617.659 28.2955C617.659 28.0767 617.741 27.8894 617.903 27.7337C618.069 27.5779 618.266 27.5 618.495 27.5C618.723 27.5 618.919 27.5779 619.081 27.7337C619.247 27.8894 619.33 28.0767 619.33 28.2955C619.33 28.5142 619.247 28.7015 619.081 28.8572C618.919 29.013 618.723 29.0909 618.495 29.0909ZM624.323 38.1591C623.607 38.1591 622.99 37.9901 622.473 37.652C621.956 37.3139 621.558 36.8482 621.28 36.255C621.002 35.6617 620.862 34.9839 620.862 34.2216C620.862 33.446 621.005 32.7616 621.29 32.1683C621.578 31.5717 621.979 31.1061 622.493 30.7713C623.01 30.4332 623.613 30.2642 624.303 30.2642C624.84 30.2642 625.324 30.3636 625.754 30.5625C626.185 30.7614 626.538 31.0398 626.813 31.3977C627.088 31.7557 627.259 32.1733 627.325 32.6506H626.152C626.063 32.3026 625.864 31.9943 625.556 31.7259C625.251 31.4541 624.84 31.3182 624.323 31.3182C623.865 31.3182 623.464 31.4375 623.119 31.6761C622.778 31.9115 622.511 32.2446 622.319 32.6754C622.13 33.103 622.036 33.6051 622.036 34.1818C622.036 34.7718 622.128 35.2855 622.314 35.723C622.503 36.1605 622.768 36.5002 623.11 36.7422C623.454 36.9841 623.859 37.1051 624.323 37.1051C624.628 37.1051 624.904 37.0521 625.153 36.946C625.401 36.84 625.612 36.6875 625.784 36.4886C625.957 36.2898 626.079 36.0511 626.152 35.7727H627.325C627.259 36.2235 627.095 36.6295 626.833 36.9908C626.575 37.3487 626.232 37.6338 625.804 37.8459C625.38 38.0547 624.886 38.1591 624.323 38.1591ZM631.288 38.179C630.804 38.179 630.365 38.0878 629.97 37.9055C629.576 37.7199 629.263 37.4531 629.031 37.1051C628.799 36.7538 628.683 36.3295 628.683 35.8324C628.683 35.3949 628.769 35.0402 628.941 34.7685C629.114 34.4934 629.344 34.2779 629.632 34.1222C629.921 33.9664 630.239 33.8504 630.587 33.7741C630.938 33.6946 631.291 33.6316 631.646 33.5852C632.11 33.5256 632.486 33.4808 632.774 33.451C633.066 33.4179 633.278 33.3632 633.411 33.2869C633.547 33.2107 633.615 33.0781 633.615 32.8892V32.8494C633.615 32.3589 633.48 31.9777 633.212 31.706C632.947 31.4342 632.544 31.2983 632.004 31.2983C631.444 31.2983 631.004 31.4209 630.686 31.6662C630.368 31.9115 630.144 32.1733 630.015 32.4517L628.901 32.054C629.1 31.59 629.365 31.2287 629.697 30.9702C630.032 30.7083 630.396 30.526 630.791 30.4233C631.188 30.3172 631.579 30.2642 631.964 30.2642C632.209 30.2642 632.491 30.294 632.809 30.3537C633.131 30.41 633.441 30.5277 633.739 30.7067C634.04 30.8857 634.291 31.1558 634.49 31.517C634.688 31.8783 634.788 32.3622 634.788 32.9688V38H633.615V36.9659H633.555C633.475 37.1316 633.343 37.3089 633.157 37.4979C632.972 37.6868 632.725 37.8475 632.416 37.9801C632.108 38.1127 631.732 38.179 631.288 38.179ZM631.467 37.125C631.931 37.125 632.322 37.0339 632.64 36.8516C632.962 36.6693 633.204 36.4339 633.366 36.1456C633.532 35.8572 633.615 35.554 633.615 35.2358V34.1619C633.565 34.2216 633.455 34.2763 633.286 34.326C633.121 34.3724 632.928 34.4138 632.71 34.4503C632.494 34.4834 632.284 34.5133 632.078 34.5398C631.876 34.563 631.712 34.5829 631.586 34.5994C631.281 34.6392 630.996 34.7038 630.731 34.7933C630.469 34.8795 630.257 35.0104 630.095 35.1861C629.936 35.3584 629.856 35.5937 629.856 35.892C629.856 36.2997 630.007 36.608 630.308 36.8168C630.613 37.0223 630.999 37.125 631.467 37.125ZM643.75 38.1591C643.114 38.1591 642.552 37.9983 642.065 37.6768C641.578 37.352 641.197 36.8946 640.922 36.3047C640.646 35.7114 640.509 35.0104 640.509 34.2017C640.509 33.3996 640.646 32.7036 640.922 32.1136C641.197 31.5237 641.579 31.0679 642.07 30.7464C642.56 30.425 643.127 30.2642 643.77 30.2642C644.267 30.2642 644.66 30.3471 644.949 30.5128C645.24 30.6752 645.462 30.8608 645.615 31.0696C645.77 31.2751 645.891 31.4441 645.978 31.5767H646.077V27.8182H647.25V38H646.117V36.8267H645.978C645.891 36.9659 645.769 37.1416 645.61 37.3537C645.451 37.5625 645.224 37.7498 644.929 37.9155C644.634 38.0779 644.241 38.1591 643.75 38.1591ZM643.909 37.1051C644.38 37.1051 644.778 36.9825 645.103 36.7372C645.427 36.4886 645.674 36.1456 645.843 35.7081C646.012 35.2673 646.097 34.7585 646.097 34.1818C646.097 33.6117 646.014 33.1129 645.848 32.6854C645.683 32.2545 645.437 31.9197 645.113 31.6811C644.788 31.4392 644.387 31.3182 643.909 31.3182C643.412 31.3182 642.998 31.4458 642.667 31.701C642.338 31.9529 642.092 32.2959 641.926 32.7301C641.763 33.161 641.682 33.6449 641.682 34.1818C641.682 34.7254 641.765 35.2192 641.931 35.6634C642.1 36.1042 642.348 36.4555 642.676 36.7173C643.008 36.9759 643.419 37.1051 643.909 37.1051ZM652.764 38.1591C652.028 38.1591 651.393 37.9967 650.86 37.6719C650.329 37.3438 649.92 36.8864 649.632 36.2997C649.347 35.7098 649.204 35.0237 649.204 34.2415C649.204 33.4593 649.347 32.7699 649.632 32.1733C649.92 31.5734 650.321 31.1061 650.835 30.7713C651.352 30.4332 651.955 30.2642 652.645 30.2642C653.042 30.2642 653.435 30.3305 653.823 30.4631C654.211 30.5956 654.564 30.8111 654.882 31.1094C655.2 31.4044 655.453 31.7955 655.642 32.2827C655.831 32.7699 655.926 33.3698 655.926 34.0824V34.5795H650.039V33.5653H654.733C654.733 33.1345 654.646 32.75 654.474 32.4119C654.305 32.0739 654.063 31.8071 653.748 31.6115C653.437 31.416 653.069 31.3182 652.645 31.3182C652.177 31.3182 651.773 31.4342 651.431 31.6662C651.093 31.8949 650.833 32.1932 650.651 32.5611C650.469 32.929 650.377 33.3234 650.377 33.7443V34.4205C650.377 34.9972 650.477 35.486 650.676 35.8871C650.878 36.2848 651.158 36.5881 651.516 36.7969C651.874 37.0024 652.29 37.1051 652.764 37.1051C653.072 37.1051 653.35 37.062 653.599 36.9759C653.851 36.8864 654.068 36.7538 654.25 36.5781C654.433 36.3991 654.574 36.1771 654.673 35.9119L655.806 36.2301C655.687 36.6146 655.487 36.9527 655.205 37.2443C654.923 37.5327 654.575 37.758 654.161 37.9205C653.747 38.0795 653.281 38.1591 652.764 38.1591ZM661.648 40.8636V30.3636H662.782V31.5767H662.921C663.007 31.4441 663.126 31.2751 663.279 31.0696C663.435 30.8608 663.657 30.6752 663.945 30.5128C664.237 30.3471 664.631 30.2642 665.128 30.2642C665.771 30.2642 666.338 30.425 666.828 30.7464C667.319 31.0679 667.702 31.5237 667.977 32.1136C668.252 32.7036 668.39 33.3996 668.39 34.2017C668.39 35.0104 668.252 35.7114 667.977 36.3047C667.702 36.8946 667.321 37.352 666.833 37.6768C666.346 37.9983 665.784 38.1591 665.148 38.1591C664.658 38.1591 664.265 38.0779 663.97 37.9155C663.675 37.7498 663.448 37.5625 663.289 37.3537C663.13 37.1416 663.007 36.9659 662.921 36.8267H662.821V40.8636H661.648ZM662.801 34.1818C662.801 34.7585 662.886 35.2673 663.055 35.7081C663.224 36.1456 663.471 36.4886 663.796 36.7372C664.121 36.9825 664.518 37.1051 664.989 37.1051C665.48 37.1051 665.889 36.9759 666.217 36.7173C666.548 36.4555 666.797 36.1042 666.963 35.6634C667.132 35.2192 667.216 34.7254 667.216 34.1818C667.216 33.6449 667.133 33.161 666.968 32.7301C666.805 32.2959 666.558 31.9529 666.227 31.701C665.899 31.4458 665.486 31.3182 664.989 31.3182C664.512 31.3182 664.111 31.4392 663.786 31.6811C663.461 31.9197 663.216 32.2545 663.05 32.6854C662.884 33.1129 662.801 33.6117 662.801 34.1818ZM670.179 38V30.3636H671.313V31.517H671.392C671.532 31.1392 671.783 30.8326 672.148 30.5973C672.513 30.362 672.924 30.2443 673.381 30.2443C673.467 30.2443 673.575 30.246 673.704 30.2493C673.833 30.2526 673.931 30.2576 673.998 30.2642V31.4574C673.958 31.4474 673.867 31.4325 673.724 31.4126C673.585 31.3894 673.437 31.3778 673.282 31.3778C672.91 31.3778 672.579 31.4557 672.287 31.6115C671.999 31.764 671.77 31.9761 671.601 32.2479C671.435 32.5163 671.353 32.8229 671.353 33.1676V38H670.179ZM675.388 38V30.3636H676.562V38H675.388ZM675.985 29.0909C675.756 29.0909 675.559 29.013 675.393 28.8572C675.231 28.7015 675.15 28.5142 675.15 28.2955C675.15 28.0767 675.231 27.8894 675.393 27.7337C675.559 27.5779 675.756 27.5 675.985 27.5C676.214 27.5 676.409 27.5779 676.572 27.7337C676.737 27.8894 676.82 28.0767 676.82 28.2955C676.82 28.5142 676.737 28.7015 676.572 28.8572C676.409 29.013 676.214 29.0909 675.985 29.0909ZM684.955 30.3636L682.131 38H680.938L678.114 30.3636H679.387L681.495 36.4489H681.574L683.682 30.3636H684.955ZM688.518 38.179C688.034 38.179 687.595 38.0878 687.201 37.9055C686.806 37.7199 686.493 37.4531 686.261 37.1051C686.029 36.7538 685.913 36.3295 685.913 35.8324C685.913 35.3949 685.999 35.0402 686.172 34.7685C686.344 34.4934 686.574 34.2779 686.863 34.1222C687.151 33.9664 687.469 33.8504 687.817 33.7741C688.169 33.6946 688.522 33.6316 688.876 33.5852C689.34 33.5256 689.716 33.4808 690.005 33.451C690.296 33.4179 690.509 33.3632 690.641 33.2869C690.777 33.2107 690.845 33.0781 690.845 32.8892V32.8494C690.845 32.3589 690.711 31.9777 690.442 31.706C690.177 31.4342 689.774 31.2983 689.234 31.2983C688.674 31.2983 688.235 31.4209 687.917 31.6662C687.599 31.9115 687.375 32.1733 687.246 32.4517L686.132 32.054C686.331 31.59 686.596 31.2287 686.927 30.9702C687.262 30.7083 687.627 30.526 688.021 30.4233C688.419 30.3172 688.81 30.2642 689.194 30.2642C689.44 30.2642 689.721 30.294 690.04 30.3537C690.361 30.41 690.671 30.5277 690.969 30.7067C691.271 30.8857 691.521 31.1558 691.72 31.517C691.919 31.8783 692.018 32.3622 692.018 32.9688V38H690.845V36.9659H690.785C690.706 37.1316 690.573 37.3089 690.388 37.4979C690.202 37.6868 689.955 37.8475 689.647 37.9801C689.339 38.1127 688.962 38.179 688.518 38.179ZM688.697 37.125C689.161 37.125 689.552 37.0339 689.871 36.8516C690.192 36.6693 690.434 36.4339 690.596 36.1456C690.762 35.8572 690.845 35.554 690.845 35.2358V34.1619C690.795 34.2216 690.686 34.2763 690.517 34.326C690.351 34.3724 690.159 34.4138 689.94 34.4503C689.725 34.4834 689.514 34.5133 689.309 34.5398C689.107 34.563 688.943 34.5829 688.817 34.5994C688.512 34.6392 688.227 34.7038 687.961 34.7933C687.7 34.8795 687.488 35.0104 687.325 35.1861C687.166 35.3584 687.086 35.5937 687.086 35.892C687.086 36.2997 687.237 36.608 687.539 36.8168C687.844 37.0223 688.23 37.125 688.697 37.125ZM697.262 38.1591C696.546 38.1591 695.93 37.9901 695.413 37.652C694.896 37.3139 694.498 36.8482 694.219 36.255C693.941 35.6617 693.802 34.9839 693.802 34.2216C693.802 33.446 693.944 32.7616 694.229 32.1683C694.518 31.5717 694.919 31.1061 695.433 30.7713C695.95 30.4332 696.553 30.2642 697.242 30.2642C697.779 30.2642 698.263 30.3636 698.694 30.5625C699.125 30.7614 699.478 31.0398 699.753 31.3977C700.028 31.7557 700.199 32.1733 700.265 32.6506H699.092C699.002 32.3026 698.803 31.9943 698.495 31.7259C698.19 31.4541 697.779 31.3182 697.262 31.3182C696.805 31.3182 696.404 31.4375 696.059 31.6761C695.718 31.9115 695.451 32.2446 695.259 32.6754C695.07 33.103 694.975 33.6051 694.975 34.1818C694.975 34.7718 695.068 35.2855 695.254 35.723C695.442 36.1605 695.708 36.5002 696.049 36.7422C696.394 36.9841 696.798 37.1051 697.262 37.1051C697.567 37.1051 697.844 37.0521 698.092 36.946C698.341 36.84 698.551 36.6875 698.724 36.4886C698.896 36.2898 699.019 36.0511 699.092 35.7727H700.265C700.199 36.2235 700.035 36.6295 699.773 36.9908C699.514 37.3487 699.171 37.6338 698.744 37.8459C698.319 38.0547 697.826 38.1591 697.262 38.1591ZM701.98 38V30.3636H703.153V38H701.98ZM702.577 29.0909C702.348 29.0909 702.151 29.013 701.985 28.8572C701.823 28.7015 701.741 28.5142 701.741 28.2955C701.741 28.0767 701.823 27.8894 701.985 27.7337C702.151 27.5779 702.348 27.5 702.577 27.5C702.805 27.5 703.001 27.5779 703.163 27.7337C703.329 27.8894 703.412 28.0767 703.412 28.2955C703.412 28.5142 703.329 28.7015 703.163 28.8572C703.001 29.013 702.805 29.0909 702.577 29.0909ZM708.186 38.1591C707.55 38.1591 706.988 37.9983 706.501 37.6768C706.013 37.352 705.632 36.8946 705.357 36.3047C705.082 35.7114 704.944 35.0104 704.944 34.2017C704.944 33.3996 705.082 32.7036 705.357 32.1136C705.632 31.5237 706.015 31.0679 706.506 30.7464C706.996 30.425 707.563 30.2642 708.206 30.2642C708.703 30.2642 709.096 30.3471 709.384 30.5128C709.676 30.6752 709.898 30.8608 710.05 31.0696C710.206 31.2751 710.327 31.4441 710.413 31.5767H710.513V27.8182H711.686V38H710.552V36.8267H710.413C710.327 36.9659 710.204 37.1416 710.045 37.3537C709.886 37.5625 709.659 37.7498 709.364 37.9155C709.069 38.0779 708.676 38.1591 708.186 38.1591ZM708.345 37.1051C708.816 37.1051 709.213 36.9825 709.538 36.7372C709.863 36.4886 710.11 36.1456 710.279 35.7081C710.448 35.2673 710.532 34.7585 710.532 34.1818C710.532 33.6117 710.45 33.1129 710.284 32.6854C710.118 32.2545 709.873 31.9197 709.548 31.6811C709.223 31.4392 708.822 31.3182 708.345 31.3182C707.848 31.3182 707.434 31.4458 707.102 31.701C706.774 31.9529 706.527 32.2959 706.361 32.7301C706.199 33.161 706.118 33.6449 706.118 34.1818C706.118 34.7254 706.201 35.2192 706.366 35.6634C706.535 36.1042 706.784 36.4555 707.112 36.7173C707.443 36.9759 707.854 37.1051 708.345 37.1051ZM716.245 38.179C715.761 38.179 715.322 38.0878 714.927 37.9055C714.533 37.7199 714.22 37.4531 713.988 37.1051C713.756 36.7538 713.64 36.3295 713.64 35.8324C713.64 35.3949 713.726 35.0402 713.898 34.7685C714.071 34.4934 714.301 34.2779 714.589 34.1222C714.878 33.9664 715.196 33.8504 715.544 33.7741C715.895 33.6946 716.248 33.6316 716.603 33.5852C717.067 33.5256 717.443 33.4808 717.731 33.451C718.023 33.4179 718.235 33.3632 718.368 33.2869C718.504 33.2107 718.572 33.0781 718.572 32.8892V32.8494C718.572 32.3589 718.437 31.9777 718.169 31.706C717.904 31.4342 717.501 31.2983 716.961 31.2983C716.401 31.2983 715.961 31.4209 715.643 31.6662C715.325 31.9115 715.101 32.1733 714.972 32.4517L713.858 32.054C714.057 31.59 714.323 31.2287 714.654 30.9702C714.989 30.7083 715.353 30.526 715.748 30.4233C716.145 30.3172 716.537 30.2642 716.921 30.2642C717.166 30.2642 717.448 30.294 717.766 30.3537C718.088 30.41 718.398 30.5277 718.696 30.7067C718.997 30.8857 719.248 31.1558 719.447 31.517C719.645 31.8783 719.745 32.3622 719.745 32.9688V38H718.572V36.9659H718.512C718.432 37.1316 718.3 37.3089 718.114 37.4979C717.929 37.6868 717.682 37.8475 717.373 37.9801C717.065 38.1127 716.689 38.179 716.245 38.179ZM716.424 37.125C716.888 37.125 717.279 37.0339 717.597 36.8516C717.919 36.6693 718.161 36.4339 718.323 36.1456C718.489 35.8572 718.572 35.554 718.572 35.2358V34.1619C718.522 34.2216 718.412 34.2763 718.243 34.326C718.078 34.3724 717.885 34.4138 717.667 34.4503C717.451 34.4834 717.241 34.5133 717.035 34.5398C716.833 34.563 716.669 34.5829 716.543 34.5994C716.238 34.6392 715.953 34.7038 715.688 34.7933C715.426 34.8795 715.214 35.0104 715.052 35.1861C714.893 35.3584 714.813 35.5937 714.813 35.892C714.813 36.2997 714.964 36.608 715.265 36.8168C715.57 37.0223 715.956 37.125 716.424 37.125ZM724.77 38.1591C724.134 38.1591 723.572 37.9983 723.085 37.6768C722.597 37.352 722.216 36.8946 721.941 36.3047C721.666 35.7114 721.528 35.0104 721.528 34.2017C721.528 33.3996 721.666 32.7036 721.941 32.1136C722.216 31.5237 722.599 31.0679 723.089 30.7464C723.58 30.425 724.147 30.2642 724.79 30.2642C725.287 30.2642 725.68 30.3471 725.968 30.5128C726.26 30.6752 726.482 30.8608 726.634 31.0696C726.79 31.2751 726.911 31.4441 726.997 31.5767H727.097V27.8182H728.27V38H727.136V36.8267H726.997C726.911 36.9659 726.788 37.1416 726.629 37.3537C726.47 37.5625 726.243 37.7498 725.948 37.9155C725.653 38.0779 725.26 38.1591 724.77 38.1591ZM724.929 37.1051C725.4 37.1051 725.797 36.9825 726.122 36.7372C726.447 36.4886 726.694 36.1456 726.863 35.7081C727.032 35.2673 727.116 34.7585 727.116 34.1818C727.116 33.6117 727.034 33.1129 726.868 32.6854C726.702 32.2545 726.457 31.9197 726.132 31.6811C725.807 31.4392 725.406 31.3182 724.929 31.3182C724.432 31.3182 724.018 31.4458 723.686 31.701C723.358 31.9529 723.111 32.2959 722.945 32.7301C722.783 33.161 722.702 33.6449 722.702 34.1818C722.702 34.7254 722.785 35.2192 722.95 35.6634C723.119 36.1042 723.368 36.4555 723.696 36.7173C724.027 36.9759 724.438 37.1051 724.929 37.1051ZM736.229 24.5369V41.2812H735.235V24.5369H736.229ZM742.639 28.9119V27.8182H750.275V28.9119H747.074V38H745.841V28.9119H742.639ZM754.113 38.1591C753.378 38.1591 752.743 37.9967 752.209 37.6719C751.679 37.3438 751.27 36.8864 750.981 36.2997C750.696 35.7098 750.554 35.0237 750.554 34.2415C750.554 33.4593 750.696 32.7699 750.981 32.1733C751.27 31.5734 751.671 31.1061 752.184 30.7713C752.702 30.4332 753.305 30.2642 753.994 30.2642C754.392 30.2642 754.785 30.3305 755.172 30.4631C755.56 30.5956 755.913 30.8111 756.231 31.1094C756.55 31.4044 756.803 31.7955 756.992 32.2827C757.181 32.7699 757.275 33.3698 757.275 34.0824V34.5795H751.389V33.5653H756.082C756.082 33.1345 755.996 32.75 755.824 32.4119C755.655 32.0739 755.413 31.8071 755.098 31.6115C754.786 31.416 754.418 31.3182 753.994 31.3182C753.527 31.3182 753.122 31.4342 752.781 31.6662C752.443 31.8949 752.183 32.1932 752.001 32.5611C751.818 32.929 751.727 33.3234 751.727 33.7443V34.4205C751.727 34.9972 751.827 35.486 752.025 35.8871C752.228 36.2848 752.508 36.5881 752.866 36.7969C753.224 37.0024 753.64 37.1051 754.113 37.1051C754.422 37.1051 754.7 37.062 754.949 36.9759C755.201 36.8864 755.418 36.7538 755.6 36.5781C755.782 36.3991 755.923 36.1771 756.023 35.9119L757.156 36.2301C757.037 36.6146 756.836 36.9527 756.555 37.2443C756.273 37.5327 755.925 37.758 755.51 37.9205C755.096 38.0795 754.631 38.1591 754.113 38.1591ZM759.06 38V30.3636H760.194V31.517H760.273C760.412 31.1392 760.664 30.8326 761.029 30.5973C761.394 30.362 761.805 30.2443 762.262 30.2443C762.348 30.2443 762.456 30.246 762.585 30.2493C762.714 30.2526 762.812 30.2576 762.878 30.2642V31.4574C762.839 31.4474 762.747 31.4325 762.605 31.4126C762.466 31.3894 762.318 31.3778 762.162 31.3778C761.791 31.3778 761.46 31.4557 761.168 31.6115C760.88 31.764 760.651 31.9761 760.482 32.2479C760.316 32.5163 760.233 32.8229 760.233 33.1676V38H759.06ZM764.269 38V30.3636H765.403V31.5568H765.502C765.661 31.1491 765.918 30.8326 766.273 30.6072C766.627 30.3786 767.053 30.2642 767.55 30.2642C768.054 30.2642 768.473 30.3786 768.808 30.6072C769.146 30.8326 769.41 31.1491 769.599 31.5568H769.678C769.874 31.1624 770.167 30.8492 770.558 30.6172C770.949 30.3819 771.418 30.2642 771.965 30.2642C772.648 30.2642 773.206 30.478 773.641 30.9055C774.075 31.3298 774.292 31.991 774.292 32.8892V38H773.119V32.8892C773.119 32.3258 772.964 31.9231 772.656 31.6811C772.348 31.4392 771.985 31.3182 771.567 31.3182C771.031 31.3182 770.615 31.4806 770.32 31.8054C770.025 32.1269 769.877 32.5346 769.877 33.0284V38H768.684V32.7699C768.684 32.3357 768.543 31.986 768.261 31.7209C767.98 31.4524 767.617 31.3182 767.173 31.3182C766.868 31.3182 766.583 31.3994 766.317 31.5618C766.056 31.7242 765.844 31.9496 765.681 32.2379C765.522 32.523 765.442 32.8527 765.442 33.2273V38H764.269ZM776.437 38V30.3636H777.61V38H776.437ZM777.034 29.0909C776.805 29.0909 776.608 29.013 776.442 28.8572C776.28 28.7015 776.199 28.5142 776.199 28.2955C776.199 28.0767 776.28 27.8894 776.442 27.7337C776.608 27.5779 776.805 27.5 777.034 27.5C777.262 27.5 777.458 27.5779 777.62 27.7337C777.786 27.8894 777.869 28.0767 777.869 28.2955C777.869 28.5142 777.786 28.7015 777.62 28.8572C777.458 29.013 777.262 29.0909 777.034 29.0909ZM780.933 33.4062V38H779.759V30.3636H780.893V31.5568H780.992C781.171 31.169 781.443 30.8575 781.808 30.6222C782.172 30.3835 782.643 30.2642 783.22 30.2642C783.737 30.2642 784.189 30.3703 784.577 30.5824C784.965 30.7912 785.266 31.1094 785.482 31.5369C785.697 31.9612 785.805 32.4981 785.805 33.1477V38H784.632V33.2273C784.632 32.6274 784.476 32.16 784.164 31.8253C783.853 31.4872 783.425 31.3182 782.882 31.3182C782.507 31.3182 782.172 31.3994 781.877 31.5618C781.586 31.7242 781.355 31.9612 781.186 32.2727C781.017 32.5843 780.933 32.9621 780.933 33.4062ZM791.051 38.1591C790.362 38.1591 789.757 37.995 789.237 37.6669C788.719 37.3388 788.315 36.8797 788.023 36.2898C787.735 35.6998 787.591 35.0104 787.591 34.2216C787.591 33.4261 787.735 32.7318 788.023 32.1385C788.315 31.5452 788.719 31.0845 789.237 30.7564C789.757 30.4283 790.362 30.2642 791.051 30.2642C791.741 30.2642 792.344 30.4283 792.861 30.7564C793.381 31.0845 793.786 31.5452 794.074 32.1385C794.366 32.7318 794.511 33.4261 794.511 34.2216C794.511 35.0104 794.366 35.6998 794.074 36.2898C793.786 36.8797 793.381 37.3388 792.861 37.6669C792.344 37.995 791.741 38.1591 791.051 38.1591ZM791.051 37.1051C791.575 37.1051 792.006 36.9709 792.344 36.7024C792.682 36.4339 792.932 36.081 793.094 35.6435C793.257 35.206 793.338 34.732 793.338 34.2216C793.338 33.7112 793.257 33.2356 793.094 32.7947C792.932 32.3539 792.682 31.9976 792.344 31.7259C792.006 31.4541 791.575 31.3182 791.051 31.3182C790.527 31.3182 790.097 31.4541 789.759 31.7259C789.42 31.9976 789.17 32.3539 789.008 32.7947C788.845 33.2356 788.764 33.7112 788.764 34.2216C788.764 34.732 788.845 35.206 789.008 35.6435C789.17 36.081 789.42 36.4339 789.759 36.7024C790.097 36.9709 790.527 37.1051 791.051 37.1051ZM801.711 32.0739L800.657 32.3722C800.591 32.1965 800.493 32.0258 800.364 31.8601C800.238 31.6911 800.066 31.5518 799.847 31.4425C799.628 31.3331 799.348 31.2784 799.007 31.2784C798.54 31.2784 798.15 31.3861 797.839 31.6016C797.53 31.8137 797.376 32.0838 797.376 32.4119C797.376 32.7036 797.482 32.9339 797.694 33.103C797.907 33.272 798.238 33.4129 798.689 33.5256L799.822 33.804C800.505 33.9697 801.014 34.2232 801.349 34.5646C801.683 34.9027 801.851 35.3385 801.851 35.8722C801.851 36.3097 801.725 36.7008 801.473 37.0455C801.224 37.3902 800.876 37.6619 800.429 37.8608C799.981 38.0597 799.461 38.1591 798.868 38.1591C798.089 38.1591 797.444 37.9901 796.934 37.652C796.423 37.3139 796.1 36.8201 795.964 36.1705L797.078 35.892C797.184 36.303 797.385 36.6113 797.68 36.8168C797.978 37.0223 798.367 37.125 798.848 37.125C799.395 37.125 799.829 37.009 800.15 36.777C800.475 36.5417 800.638 36.2599 800.638 35.9318C800.638 35.6667 800.545 35.4446 800.359 35.2656C800.174 35.0833 799.889 34.9474 799.504 34.858L798.231 34.5597C797.532 34.3939 797.018 34.1371 796.69 33.7891C796.365 33.4377 796.203 32.9986 796.203 32.4716C796.203 32.0407 796.324 31.6596 796.566 31.3281C796.811 30.9967 797.144 30.7365 797.565 30.5476C797.989 30.3587 798.47 30.2642 799.007 30.2642C799.763 30.2642 800.356 30.4299 800.787 30.7614C801.221 31.0928 801.529 31.5303 801.711 32.0739ZM810.438 38.1591C809.801 38.1591 809.24 37.9983 808.752 37.6768C808.265 37.352 807.884 36.8946 807.609 36.3047C807.334 35.7114 807.196 35.0104 807.196 34.2017C807.196 33.3996 807.334 32.7036 807.609 32.1136C807.884 31.5237 808.267 31.0679 808.757 30.7464C809.248 30.425 809.815 30.2642 810.458 30.2642C810.955 30.2642 811.348 30.3471 811.636 30.5128C811.928 30.6752 812.15 30.8608 812.302 31.0696C812.458 31.2751 812.579 31.4441 812.665 31.5767H812.765V27.8182H813.938V38H812.804V36.8267H812.665C812.579 36.9659 812.456 37.1416 812.297 37.3537C812.138 37.5625 811.911 37.7498 811.616 37.9155C811.321 38.0779 810.928 38.1591 810.438 38.1591ZM810.597 37.1051C811.068 37.1051 811.465 36.9825 811.79 36.7372C812.115 36.4886 812.362 36.1456 812.531 35.7081C812.7 35.2673 812.784 34.7585 812.784 34.1818C812.784 33.6117 812.702 33.1129 812.536 32.6854C812.37 32.2545 812.125 31.9197 811.8 31.6811C811.475 31.4392 811.074 31.3182 810.597 31.3182C810.1 31.3182 809.685 31.4458 809.354 31.701C809.026 31.9529 808.779 32.2959 808.613 32.7301C808.451 33.161 808.37 33.6449 808.37 34.1818C808.37 34.7254 808.453 35.2192 808.618 35.6634C808.787 36.1042 809.036 36.4555 809.364 36.7173C809.695 36.9759 810.106 37.1051 810.597 37.1051ZM819.451 38.1591C818.716 38.1591 818.081 37.9967 817.547 37.6719C817.017 37.3438 816.608 36.8864 816.319 36.2997C816.034 35.7098 815.892 35.0237 815.892 34.2415C815.892 33.4593 816.034 32.7699 816.319 32.1733C816.608 31.5734 817.009 31.1061 817.522 30.7713C818.039 30.4332 818.643 30.2642 819.332 30.2642C819.73 30.2642 820.123 30.3305 820.51 30.4631C820.898 30.5956 821.251 30.8111 821.569 31.1094C821.887 31.4044 822.141 31.7955 822.33 32.2827C822.519 32.7699 822.613 33.3698 822.613 34.0824V34.5795H816.727V33.5653H821.42C821.42 33.1345 821.334 32.75 821.162 32.4119C820.993 32.0739 820.751 31.8071 820.436 31.6115C820.124 31.416 819.756 31.3182 819.332 31.3182C818.865 31.3182 818.46 31.4342 818.119 31.6662C817.781 31.8949 817.521 32.1932 817.338 32.5611C817.156 32.929 817.065 33.3234 817.065 33.7443V34.4205C817.065 34.9972 817.164 35.486 817.363 35.8871C817.565 36.2848 817.846 36.5881 818.203 36.7969C818.561 37.0024 818.977 37.1051 819.451 37.1051C819.76 37.1051 820.038 37.062 820.287 36.9759C820.538 36.8864 820.756 36.7538 820.938 36.5781C821.12 36.3991 821.261 36.1771 821.36 35.9119L822.494 36.2301C822.375 36.6146 822.174 36.9527 821.892 37.2443C821.611 37.5327 821.263 37.758 820.848 37.9205C820.434 38.0795 819.968 38.1591 819.451 38.1591ZM833.148 34.8778V30.3636H834.321V38H833.148V36.7074H833.069C832.89 37.0952 832.611 37.425 832.233 37.6967C831.855 37.9652 831.378 38.0994 830.801 38.0994C830.324 38.0994 829.9 37.995 829.529 37.7862C829.158 37.5741 828.866 37.2559 828.654 36.8317C828.442 36.4041 828.336 35.8655 828.336 35.2159V30.3636H829.509V35.1364C829.509 35.6932 829.665 36.1373 829.976 36.4688C830.291 36.8002 830.692 36.9659 831.179 36.9659C831.471 36.9659 831.768 36.8913 832.069 36.7422C832.374 36.593 832.629 36.3643 832.835 36.0561C833.044 35.7479 833.148 35.3551 833.148 34.8778ZM841.879 32.0739L840.825 32.3722C840.759 32.1965 840.661 32.0258 840.532 31.8601C840.406 31.6911 840.234 31.5518 840.015 31.4425C839.796 31.3331 839.516 31.2784 839.175 31.2784C838.708 31.2784 838.318 31.3861 838.007 31.6016C837.698 31.8137 837.544 32.0838 837.544 32.4119C837.544 32.7036 837.65 32.9339 837.862 33.103C838.075 33.272 838.406 33.4129 838.857 33.5256L839.99 33.804C840.673 33.9697 841.182 34.2232 841.517 34.5646C841.851 34.9027 842.019 35.3385 842.019 35.8722C842.019 36.3097 841.893 36.7008 841.641 37.0455C841.392 37.3902 841.044 37.6619 840.597 37.8608C840.149 38.0597 839.629 38.1591 839.036 38.1591C838.257 38.1591 837.612 37.9901 837.102 37.652C836.591 37.3139 836.268 36.8201 836.132 36.1705L837.246 35.892C837.352 36.303 837.552 36.6113 837.847 36.8168C838.146 37.0223 838.535 37.125 839.016 37.125C839.563 37.125 839.997 37.009 840.318 36.777C840.643 36.5417 840.806 36.2599 840.806 35.9318C840.806 35.6667 840.713 35.4446 840.527 35.2656C840.342 35.0833 840.057 34.9474 839.672 34.858L838.399 34.5597C837.7 34.3939 837.186 34.1371 836.858 33.7891C836.533 33.4377 836.371 32.9986 836.371 32.4716C836.371 32.0407 836.492 31.6596 836.734 31.3281C836.979 30.9967 837.312 30.7365 837.733 30.5476C838.157 30.3587 838.638 30.2642 839.175 30.2642C839.931 30.2642 840.524 30.4299 840.955 30.7614C841.389 31.0928 841.697 31.5303 841.879 32.0739ZM846.887 38.1591C846.198 38.1591 845.593 37.995 845.072 37.6669C844.555 37.3388 844.151 36.8797 843.859 36.2898C843.571 35.6998 843.427 35.0104 843.427 34.2216C843.427 33.4261 843.571 32.7318 843.859 32.1385C844.151 31.5452 844.555 31.0845 845.072 30.7564C845.593 30.4283 846.198 30.2642 846.887 30.2642C847.576 30.2642 848.18 30.4283 848.697 30.7564C849.217 31.0845 849.621 31.5452 849.91 32.1385C850.201 32.7318 850.347 33.4261 850.347 34.2216C850.347 35.0104 850.201 35.6998 849.91 36.2898C849.621 36.8797 849.217 37.3388 848.697 37.6669C848.18 37.995 847.576 38.1591 846.887 38.1591ZM846.887 37.1051C847.411 37.1051 847.842 36.9709 848.18 36.7024C848.518 36.4339 848.768 36.081 848.93 35.6435C849.093 35.206 849.174 34.732 849.174 34.2216C849.174 33.7112 849.093 33.2356 848.93 32.7947C848.768 32.3539 848.518 31.9976 848.18 31.7259C847.842 31.4541 847.411 31.3182 846.887 31.3182C846.363 31.3182 845.933 31.4541 845.594 31.7259C845.256 31.9976 845.006 32.3539 844.844 32.7947C844.681 33.2356 844.6 33.7112 844.6 34.2216C844.6 34.732 844.681 35.206 844.844 35.6435C845.006 36.081 845.256 36.4339 845.594 36.7024C845.933 36.9709 846.363 37.1051 846.887 37.1051Z" fill="black"/>
<path d="M630.065 72.9091C630.065 72.3655 630.198 71.87 630.463 71.4226C630.728 70.9751 631.085 70.6188 631.532 70.3537C631.979 70.0885 632.475 69.956 633.019 69.956C633.489 69.956 633.923 70.0571 634.321 70.2592C634.722 70.4614 635.054 70.7382 635.315 71.0895C635.577 71.4375 635.74 71.8319 635.803 72.2727H634.6C634.533 71.9313 634.349 71.6529 634.048 71.4375C633.746 71.2188 633.403 71.1094 633.019 71.1094C632.687 71.1094 632.386 71.1906 632.114 71.353C631.842 71.5154 631.625 71.7325 631.462 72.0043C631.3 72.276 631.219 72.5777 631.219 72.9091C631.219 73.2405 631.3 73.5421 631.462 73.8139C631.625 74.0857 631.842 74.3028 632.114 74.4652C632.386 74.6276 632.687 74.7088 633.019 74.7088C633.403 74.7088 633.728 74.6011 633.993 74.3857C634.261 74.1669 634.43 73.8868 634.5 73.5455H635.703C635.64 73.9863 635.486 74.3823 635.241 74.7337C634.996 75.0817 634.681 75.3568 634.296 75.5589C633.915 75.7611 633.489 75.8622 633.019 75.8622C632.475 75.8622 631.979 75.7296 631.532 75.4645C631.085 75.1993 630.728 74.843 630.463 74.3956C630.198 73.9482 630.065 73.4527 630.065 72.9091ZM632.969 78.1591C632.246 78.1591 631.567 78.0232 630.93 77.7514C630.297 77.4796 629.739 77.1035 629.255 76.6229C628.774 76.139 628.397 75.5805 628.122 74.9474C627.85 74.3144 627.716 73.6349 627.719 72.9091C627.722 72.1832 627.86 71.5038 628.131 70.8707C628.407 70.2377 628.784 69.6809 629.265 69.2003C629.746 68.7164 630.302 68.3385 630.935 68.0668C631.569 67.795 632.246 67.6591 632.969 67.6591C633.695 67.6591 634.374 67.795 635.007 68.0668C635.644 68.3385 636.2 68.7164 636.678 69.2003C637.158 69.6809 637.534 70.2377 637.806 70.8707C638.078 71.5038 638.216 72.1832 638.219 72.9091C638.222 73.6349 638.088 74.3144 637.816 74.9474C637.544 75.5805 637.168 76.139 636.688 76.6229C636.207 77.1035 635.649 77.4796 635.012 77.7514C634.376 78.0232 633.695 78.1591 632.969 78.1591ZM632.969 77.0057C633.536 77.0057 634.068 76.8996 634.565 76.6875C635.062 76.4754 635.498 76.1821 635.872 75.8075C636.247 75.433 636.54 74.9988 636.752 74.505C636.964 74.0078 637.069 73.4775 637.065 72.9141C637.062 72.3473 636.954 71.8153 636.742 71.3182C636.53 70.821 636.237 70.3852 635.862 70.0107C635.488 69.6361 635.054 69.3428 634.56 69.1307C634.066 68.9186 633.536 68.8125 632.969 68.8125C632.405 68.8125 631.877 68.9186 631.383 69.1307C630.889 69.3428 630.455 69.6378 630.08 70.0156C629.706 70.3902 629.411 70.826 629.195 71.3232C628.983 71.817 628.876 72.3473 628.872 72.9141C628.869 73.4742 628.973 74.0028 629.185 74.5C629.398 74.9938 629.691 75.428 630.065 75.8026C630.443 76.1771 630.879 76.4721 631.373 76.6875C631.87 76.8996 632.402 77.0057 632.969 77.0057ZM644.367 78V77.1051L647.728 73.4261C648.123 72.9953 648.447 72.6207 648.703 72.3026C648.958 71.9811 649.147 71.6795 649.269 71.3977C649.395 71.1127 649.458 70.8144 649.458 70.5028C649.458 70.1449 649.372 69.835 649.2 69.5732C649.031 69.3113 648.799 69.1091 648.504 68.9666C648.209 68.8241 647.877 68.7528 647.509 68.7528C647.118 68.7528 646.777 68.834 646.485 68.9964C646.197 69.1555 645.973 69.3793 645.814 69.6676C645.658 69.956 645.581 70.294 645.581 70.6818H644.407C644.407 70.0852 644.545 69.5616 644.82 69.1108C645.095 68.66 645.469 68.3087 645.943 68.0568C646.421 67.8049 646.956 67.679 647.549 67.679C648.146 67.679 648.675 67.8049 649.135 68.0568C649.596 68.3087 649.957 68.6484 650.219 69.076C650.481 69.5036 650.612 69.9792 650.612 70.5028C650.612 70.8774 650.544 71.2436 650.408 71.6016C650.275 71.9562 650.043 72.3523 649.712 72.7898C649.384 73.224 648.928 73.7543 648.345 74.3807L646.058 76.8267V76.9062H650.791V78H644.367ZM656.165 78.1392C655.416 78.1392 654.778 77.9354 654.251 77.5277C653.724 77.1167 653.321 76.5218 653.043 75.7429C652.764 74.9607 652.625 74.0161 652.625 72.9091C652.625 71.8087 652.764 70.8691 653.043 70.0902C653.325 69.308 653.729 68.7114 654.256 68.3004C654.786 67.8861 655.423 67.679 656.165 67.679C656.907 67.679 657.542 67.8861 658.069 68.3004C658.599 68.7114 659.004 69.308 659.282 70.0902C659.564 70.8691 659.705 71.8087 659.705 72.9091C659.705 74.0161 659.566 74.9607 659.287 75.7429C659.009 76.5218 658.606 77.1167 658.079 77.5277C657.552 77.9354 656.914 78.1392 656.165 78.1392ZM656.165 77.0455C656.907 77.0455 657.484 76.6875 657.895 75.9716C658.306 75.2557 658.512 74.2348 658.512 72.9091C658.512 72.0275 658.417 71.2768 658.228 70.657C658.043 70.0372 657.774 69.5649 657.423 69.2401C657.075 68.9152 656.656 68.7528 656.165 68.7528C655.429 68.7528 654.854 69.1158 654.44 69.8416C654.026 70.5642 653.818 71.5866 653.818 72.9091C653.818 73.7907 653.911 74.5398 654.097 75.1562C654.282 75.7727 654.549 76.2417 654.897 76.5632C655.249 76.8847 655.671 77.0455 656.165 77.0455ZM664.915 78.1392C664.166 78.1392 663.528 77.9354 663.001 77.5277C662.474 77.1167 662.071 76.5218 661.793 75.7429C661.514 74.9607 661.375 74.0161 661.375 72.9091C661.375 71.8087 661.514 70.8691 661.793 70.0902C662.075 69.308 662.479 68.7114 663.006 68.3004C663.536 67.8861 664.173 67.679 664.915 67.679C665.657 67.679 666.292 67.8861 666.819 68.3004C667.349 68.7114 667.754 69.308 668.032 70.0902C668.314 70.8691 668.455 71.8087 668.455 72.9091C668.455 74.0161 668.316 74.9607 668.037 75.7429C667.759 76.5218 667.356 77.1167 666.829 77.5277C666.302 77.9354 665.664 78.1392 664.915 78.1392ZM664.915 77.0455C665.657 77.0455 666.234 76.6875 666.645 75.9716C667.056 75.2557 667.262 74.2348 667.262 72.9091C667.262 72.0275 667.167 71.2768 666.978 70.657C666.793 70.0372 666.524 69.5649 666.173 69.2401C665.825 68.9152 665.406 68.7528 664.915 68.7528C664.179 68.7528 663.604 69.1158 663.19 69.8416C662.776 70.5642 662.568 71.5866 662.568 72.9091C662.568 73.7907 662.661 74.5398 662.847 75.1562C663.032 75.7727 663.299 76.2417 663.647 76.5632C663.999 76.8847 664.421 77.0455 664.915 77.0455ZM673.725 78.1392C673.307 78.1326 672.889 78.053 672.472 77.9006C672.054 77.7481 671.673 77.4912 671.328 77.13C670.984 76.7654 670.707 76.2732 670.498 75.6534C670.289 75.0303 670.185 74.2481 670.185 73.3068C670.185 72.4053 670.269 71.6065 670.438 70.9105C670.608 70.2112 670.853 69.6229 671.174 69.1456C671.496 68.665 671.884 68.3004 672.338 68.0518C672.795 67.8033 673.31 67.679 673.884 67.679C674.454 67.679 674.961 67.7933 675.405 68.022C675.853 68.2474 676.217 68.5623 676.499 68.9666C676.781 69.371 676.963 69.8366 677.046 70.3636H675.833C675.72 69.9062 675.501 69.5268 675.176 69.2251C674.852 68.9235 674.421 68.7727 673.884 68.7727C673.095 68.7727 672.474 69.1158 672.019 69.8018C671.569 70.4879 671.342 71.4508 671.338 72.6903H671.418C671.603 72.4086 671.824 72.1683 672.079 71.9695C672.338 71.7673 672.623 71.6115 672.934 71.5021C673.246 71.3928 673.576 71.3381 673.924 71.3381C674.507 71.3381 675.041 71.4839 675.524 71.7756C676.008 72.0639 676.396 72.4633 676.688 72.9737C676.979 73.4808 677.125 74.0625 677.125 74.7188C677.125 75.3485 676.984 75.9252 676.703 76.4489C676.421 76.9692 676.025 77.3835 675.514 77.6918C675.007 77.9967 674.411 78.1458 673.725 78.1392ZM673.725 77.0455C674.142 77.0455 674.517 76.9411 674.848 76.7322C675.183 76.5234 675.447 76.2434 675.639 75.892C675.834 75.5407 675.932 75.1496 675.932 74.7188C675.932 74.2978 675.838 73.915 675.649 73.5703C675.463 73.2223 675.206 72.9455 674.878 72.7401C674.553 72.5346 674.182 72.4318 673.764 72.4318C673.45 72.4318 673.156 72.4948 672.884 72.6207C672.613 72.7434 672.374 72.9124 672.169 73.1278C671.966 73.3433 671.807 73.5902 671.691 73.8686C671.575 74.1437 671.517 74.4337 671.517 74.7386C671.517 75.143 671.612 75.5208 671.801 75.8722C671.993 76.2235 672.255 76.5069 672.586 76.7223C672.921 76.9377 673.3 77.0455 673.725 77.0455ZM687.413 72.3622V73.456H682.958V72.3622H687.413ZM693.395 78V77.1051L696.756 73.4261C697.15 72.9953 697.475 72.6207 697.73 72.3026C697.985 71.9811 698.174 71.6795 698.297 71.3977C698.423 71.1127 698.486 70.8144 698.486 70.5028C698.486 70.1449 698.4 69.835 698.227 69.5732C698.058 69.3113 697.826 69.1091 697.531 68.9666C697.236 68.8241 696.905 68.7528 696.537 68.7528C696.146 68.7528 695.804 68.834 695.513 68.9964C695.224 69.1555 695.001 69.3793 694.842 69.6676C694.686 69.956 694.608 70.294 694.608 70.6818H693.435C693.435 70.0852 693.572 69.5616 693.847 69.1108C694.122 68.66 694.497 68.3087 694.971 68.0568C695.448 67.8049 695.983 67.679 696.577 67.679C697.173 67.679 697.702 67.8049 698.163 68.0568C698.623 68.3087 698.985 68.6484 699.246 69.076C699.508 69.5036 699.639 69.9792 699.639 70.5028C699.639 70.8774 699.571 71.2436 699.435 71.6016C699.303 71.9562 699.071 72.3523 698.739 72.7898C698.411 73.224 697.955 73.7543 697.372 74.3807L695.085 76.8267V76.9062H699.818V78H693.395ZM705.192 78.1392C704.443 78.1392 703.805 77.9354 703.278 77.5277C702.751 77.1167 702.349 76.5218 702.07 75.7429C701.792 74.9607 701.653 74.0161 701.653 72.9091C701.653 71.8087 701.792 70.8691 702.07 70.0902C702.352 69.308 702.756 68.7114 703.283 68.3004C703.814 67.8861 704.45 67.679 705.192 67.679C705.935 67.679 706.57 67.8861 707.097 68.3004C707.627 68.7114 708.031 69.308 708.31 70.0902C708.591 70.8691 708.732 71.8087 708.732 72.9091C708.732 74.0161 708.593 74.9607 708.315 75.7429C708.036 76.5218 707.633 77.1167 707.106 77.5277C706.579 77.9354 705.941 78.1392 705.192 78.1392ZM705.192 77.0455C705.935 77.0455 706.512 76.6875 706.922 75.9716C707.333 75.2557 707.539 74.2348 707.539 72.9091C707.539 72.0275 707.445 71.2768 707.256 70.657C707.07 70.0372 706.802 69.5649 706.45 69.2401C706.102 68.9152 705.683 68.7528 705.192 68.7528C704.457 68.7528 703.882 69.1158 703.467 69.8416C703.053 70.5642 702.846 71.5866 702.846 72.9091C702.846 73.7907 702.939 74.5398 703.124 75.1562C703.31 75.7727 703.577 76.2417 703.925 76.5632C704.276 76.8847 704.699 77.0455 705.192 77.0455ZM710.621 78V77.1051L713.982 73.4261C714.377 72.9953 714.701 72.6207 714.957 72.3026C715.212 71.9811 715.401 71.6795 715.523 71.3977C715.649 71.1127 715.712 70.8144 715.712 70.5028C715.712 70.1449 715.626 69.835 715.454 69.5732C715.285 69.3113 715.053 69.1091 714.758 68.9666C714.463 68.8241 714.131 68.7528 713.763 68.7528C713.372 68.7528 713.031 68.834 712.739 68.9964C712.451 69.1555 712.227 69.3793 712.068 69.6676C711.912 69.956 711.834 70.294 711.834 70.6818H710.661C710.661 70.0852 710.799 69.5616 711.074 69.1108C711.349 68.66 711.723 68.3087 712.197 68.0568C712.675 67.8049 713.21 67.679 713.803 67.679C714.4 67.679 714.928 67.8049 715.389 68.0568C715.85 68.3087 716.211 68.6484 716.473 69.076C716.735 69.5036 716.866 69.9792 716.866 70.5028C716.866 70.8774 716.798 71.2436 716.662 71.6016C716.529 71.9562 716.297 72.3523 715.966 72.7898C715.638 73.224 715.182 73.7543 714.599 74.3807L712.312 76.8267V76.9062H717.045V78H710.621ZM722.677 67.8182V78H721.445V69.1108H721.385L718.899 70.7614V69.5085L721.445 67.8182H722.677ZM731.572 78L728.788 67.8182H730.04L732.168 76.1108H732.268L734.435 67.8182H735.827L737.995 76.1108H738.094L740.222 67.8182H741.475L738.691 78H737.418L735.171 69.8864H735.092L732.844 78H731.572ZM742.852 78V70.3636H744.025V78H742.852ZM743.449 69.0909C743.22 69.0909 743.023 69.013 742.857 68.8572C742.695 68.7015 742.614 68.5142 742.614 68.2955C742.614 68.0767 742.695 67.8894 742.857 67.7337C743.023 67.5779 743.22 67.5 743.449 67.5C743.677 67.5 743.873 67.5779 744.035 67.7337C744.201 67.8894 744.284 68.0767 744.284 68.2955C744.284 68.5142 744.201 68.7015 744.035 68.8572C743.873 69.013 743.677 69.0909 743.449 69.0909ZM747.049 70.3636L748.879 73.4858L750.709 70.3636H752.061L749.595 74.1818L752.061 78H750.709L748.879 75.0369L747.049 78H745.697L748.123 74.1818L745.697 70.3636H747.049ZM754.59 78.0795C754.345 78.0795 754.134 77.9917 753.959 77.8161C753.783 77.6404 753.695 77.4299 753.695 77.1847C753.695 76.9394 753.783 76.7289 753.959 76.5533C754.134 76.3776 754.345 76.2898 754.59 76.2898C754.835 76.2898 755.046 76.3776 755.222 76.5533C755.397 76.7289 755.485 76.9394 755.485 77.1847C755.485 77.3471 755.444 77.4962 755.361 77.6321C755.281 77.768 755.173 77.8774 755.038 77.9602C754.905 78.0398 754.756 78.0795 754.59 78.0795ZM760.693 78.1591C759.977 78.1591 759.36 77.9901 758.843 77.652C758.326 77.3139 757.929 76.8482 757.65 76.255C757.372 75.6617 757.233 74.9839 757.233 74.2216C757.233 73.446 757.375 72.7616 757.66 72.1683C757.948 71.5717 758.349 71.1061 758.863 70.7713C759.38 70.4332 759.983 70.2642 760.673 70.2642C761.21 70.2642 761.694 70.3636 762.125 70.5625C762.555 70.7614 762.908 71.0398 763.184 71.3977C763.459 71.7557 763.629 72.1733 763.696 72.6506H762.522C762.433 72.3026 762.234 71.9943 761.926 71.7259C761.621 71.4541 761.21 71.3182 760.693 71.3182C760.235 71.3182 759.834 71.4375 759.49 71.6761C759.148 71.9115 758.881 72.2446 758.689 72.6754C758.5 73.103 758.406 73.6051 758.406 74.1818C758.406 74.7718 758.499 75.2855 758.684 75.723C758.873 76.1605 759.138 76.5002 759.48 76.7422C759.824 76.9841 760.229 77.1051 760.693 77.1051C760.998 77.1051 761.274 77.0521 761.523 76.946C761.772 76.84 761.982 76.6875 762.154 76.4886C762.327 76.2898 762.449 76.0511 762.522 75.7727H763.696C763.629 76.2235 763.465 76.6295 763.203 76.9908C762.945 77.3487 762.602 77.6338 762.174 77.8459C761.75 78.0547 761.256 78.1591 760.693 78.1591ZM768.513 78.1591C767.824 78.1591 767.219 77.995 766.698 77.6669C766.181 77.3388 765.777 76.8797 765.485 76.2898C765.197 75.6998 765.053 75.0104 765.053 74.2216C765.053 73.4261 765.197 72.7318 765.485 72.1385C765.777 71.5452 766.181 71.0845 766.698 70.7564C767.219 70.4283 767.824 70.2642 768.513 70.2642C769.202 70.2642 769.806 70.4283 770.323 70.7564C770.843 71.0845 771.247 71.5452 771.536 72.1385C771.827 72.7318 771.973 73.4261 771.973 74.2216C771.973 75.0104 771.827 75.6998 771.536 76.2898C771.247 76.8797 770.843 77.3388 770.323 77.6669C769.806 77.995 769.202 78.1591 768.513 78.1591ZM768.513 77.1051C769.037 77.1051 769.468 76.9709 769.806 76.7024C770.144 76.4339 770.394 76.081 770.556 75.6435C770.719 75.206 770.8 74.732 770.8 74.2216C770.8 73.7112 770.719 73.2356 770.556 72.7947C770.394 72.3539 770.144 71.9976 769.806 71.7259C769.468 71.4541 769.037 71.3182 768.513 71.3182C767.989 71.3182 767.559 71.4541 767.22 71.7259C766.882 71.9976 766.632 72.3539 766.47 72.7947C766.307 73.2356 766.226 73.7112 766.226 74.2216C766.226 74.732 766.307 75.206 766.47 75.6435C766.632 76.081 766.882 76.4339 767.22 76.7024C767.559 76.9709 767.989 77.1051 768.513 77.1051ZM773.764 78V70.3636H774.898V71.5568H774.997C775.156 71.1491 775.413 70.8326 775.768 70.6072C776.122 70.3786 776.548 70.2642 777.046 70.2642C777.549 70.2642 777.969 70.3786 778.303 70.6072C778.641 70.8326 778.905 71.1491 779.094 71.5568H779.173C779.369 71.1624 779.662 70.8492 780.053 70.6172C780.444 70.3819 780.913 70.2642 781.46 70.2642C782.143 70.2642 782.702 70.478 783.136 70.9055C783.57 71.3298 783.787 71.991 783.787 72.8892V78H782.614V72.8892C782.614 72.3258 782.46 71.9231 782.151 71.6811C781.843 71.4392 781.48 71.3182 781.063 71.3182C780.526 71.3182 780.11 71.4806 779.815 71.8054C779.52 72.1269 779.372 72.5346 779.372 73.0284V78H778.179V72.7699C778.179 72.3357 778.038 71.986 777.756 71.7209C777.475 71.4524 777.112 71.3182 776.668 71.3182C776.363 71.3182 776.078 71.3994 775.813 71.5618C775.551 71.7242 775.339 71.9496 775.176 72.2379C775.017 72.523 774.938 72.8527 774.938 73.2273V78H773.764ZM787.682 76.608L787.603 77.1449C787.546 77.5227 787.46 77.9271 787.344 78.358C787.232 78.7888 787.114 79.1948 786.991 79.576C786.869 79.9571 786.767 80.2604 786.688 80.4858H785.793C785.836 80.2737 785.892 79.9936 785.962 79.6456C786.032 79.2976 786.101 78.9081 786.171 78.4773C786.244 78.0497 786.303 77.6122 786.35 77.1648L786.41 76.608H787.682ZM795.186 67.8182V78H793.953V67.8182H795.186ZM798.672 73.4062V78H797.499V70.3636H798.632V71.5568H798.732C798.911 71.169 799.182 70.8575 799.547 70.6222C799.912 70.3835 800.382 70.2642 800.959 70.2642C801.476 70.2642 801.928 70.3703 802.316 70.5824C802.704 70.7912 803.006 71.1094 803.221 71.5369C803.436 71.9612 803.544 72.4981 803.544 73.1477V78H802.371V73.2273C802.371 72.6274 802.215 72.16 801.903 71.8253C801.592 71.4872 801.164 71.3182 800.621 71.3182C800.246 71.3182 799.912 71.3994 799.617 71.5618C799.325 71.7242 799.095 71.9612 798.926 72.2727C798.756 72.5843 798.672 72.9621 798.672 73.4062ZM808.79 78.1591C808.074 78.1591 807.458 77.9901 806.941 77.652C806.424 77.3139 806.026 76.8482 805.748 76.255C805.469 75.6617 805.33 74.9839 805.33 74.2216C805.33 73.446 805.473 72.7616 805.758 72.1683C806.046 71.5717 806.447 71.1061 806.961 70.7713C807.478 70.4332 808.081 70.2642 808.771 70.2642C809.307 70.2642 809.791 70.3636 810.222 70.5625C810.653 70.7614 811.006 71.0398 811.281 71.3977C811.556 71.7557 811.727 72.1733 811.793 72.6506H810.62C810.53 72.3026 810.332 71.9943 810.023 71.7259C809.718 71.4541 809.307 71.3182 808.79 71.3182C808.333 71.3182 807.932 71.4375 807.587 71.6761C807.246 71.9115 806.979 72.2446 806.787 72.6754C806.598 73.103 806.503 73.6051 806.503 74.1818C806.503 74.7718 806.596 75.2855 806.782 75.723C806.971 76.1605 807.236 76.5002 807.577 76.7422C807.922 76.9841 808.326 77.1051 808.79 77.1051C809.095 77.1051 809.372 77.0521 809.621 76.946C809.869 76.84 810.08 76.6875 810.252 76.4886C810.424 76.2898 810.547 76.0511 810.62 75.7727H811.793C811.727 76.2235 811.563 76.6295 811.301 76.9908C811.043 77.3487 810.699 77.6338 810.272 77.8459C809.848 78.0547 809.354 78.1591 808.79 78.1591Z" fill="#ECF0F1"/>
</svg>
